<svg width="100" height="100" viewBox="0 0 100 100" fill="none" xmlns="http://www.w3.org/2000/svg">
<circle opacity="0.4" cx="50.2322" cy="49.7677" r="44.6512" fill="#3DC13C"/>
<circle opacity="0.1" cx="50" cy="50" r="50" fill="#3DC13C"/>
<circle opacity="0.5" cx="50.2329" cy="49.7674" r="39.0698" fill="#3DC13C"/>
<circle cx="50.2329" cy="49.7676" r="32.5581" fill="white"/>
<path d="M50.2329 17.2095C58.8679 17.2095 67.1492 20.6397 73.255 26.7455C79.3609 32.8514 82.7911 41.1327 82.7911 49.7676C82.7911 58.4026 79.3609 66.6839 73.255 72.7897C67.1492 78.8955 58.8679 82.3257 50.2329 82.3257C41.598 82.3257 33.3167 78.8955 27.2109 72.7897C21.105 66.6839 17.6748 58.4026 17.6748 49.7676C17.6748 41.1327 21.105 32.8514 27.2109 26.7455C33.3167 20.6397 41.598 17.2095 50.2329 17.2095V17.2095ZM46.1771 56.1909L38.9446 48.9537C38.6853 48.6944 38.3775 48.4887 38.0387 48.3484C37.6999 48.208 37.3368 48.1358 36.9702 48.1358C36.6035 48.1358 36.2404 48.208 35.9016 48.3484C35.5628 48.4887 35.255 48.6944 34.9957 48.9537C34.4721 49.4773 34.1779 50.1875 34.1779 50.9281C34.1779 51.6686 34.4721 52.3788 34.9957 52.9025L44.205 62.1118C44.4636 62.3724 44.7712 62.5792 45.11 62.7203C45.4489 62.8615 45.8124 62.9342 46.1795 62.9342C46.5465 62.9342 46.91 62.8615 47.2489 62.7203C47.5877 62.5792 47.8953 62.3724 48.1539 62.1118L67.2236 43.0374C67.4864 42.7792 67.6954 42.4715 67.8387 42.1321C67.9819 41.7927 68.0565 41.4283 68.0583 41.0599C68.06 40.6915 67.9887 40.3265 67.8486 39.9857C67.7086 39.645 67.5024 39.3354 67.2421 39.0748C66.9817 38.8141 66.6724 38.6076 66.3318 38.4671C65.9913 38.3267 65.6263 38.255 65.2579 38.2563C64.8895 38.2575 64.525 38.3317 64.1855 38.4746C63.8459 38.6174 63.538 38.8261 63.2795 39.0885L46.1771 56.1909Z" fill="#3DC13C"/>
</svg>
